<svg width="1200" height="198" viewBox="0 0 1200 198" fill="none" xmlns="http://www.w3.org/2000/svg">
<path d="M2 118.044L48.0833 104.739C94.1667 91.1836 186.333 64.9479 278.5 48.0822C370.667 31.2164 462.833 24.9699 555 48.0822C647.167 71.1945 739.333 124.915 831.5 138.033C923.667 151.151 1015.83 124.915 1061.92 111.36L1108 98.0548V198H1061.92C1015.83 198 923.667 198 831.5 198C739.333 198 647.167 198 555 198C462.833 198 370.667 198 278.5 198C186.333 198 94.1667 198 48.0833 198H2V118.044Z" fill="#5C88C4"/>
<path d="M0 64.7183L66.6667 86.9597C133.333 108.868 266.667 153.85 400 135.774C533.333 118.031 666.667 38.062 800 11.4056C933.333 -15.2507 1066.67 11.4056 1133.33 24.7338L1200 38.062V198H1133.33C1066.67 198 933.333 198 800 198C666.667 198 533.333 198 400 198C266.667 198 133.333 198 66.6667 198H0V64.7183Z" fill="#83B4FF"/>
</svg>
