<svg width="1202" height="248" viewBox="0 0 1202 248" fill="none" xmlns="http://www.w3.org/2000/svg">
<path d="M1199 128.939L1160.46 147.566C1121.92 166.543 1044.83 203.273 967.75 226.885C890.667 250.497 813.583 259.242 736.5 226.885C659.417 194.528 582.333 119.319 505.25 100.954C428.167 82.589 351.083 119.319 312.542 138.296L274 156.923L274 17L312.542 17C351.083 17 428.167 17 505.25 17C582.333 17 659.417 17 736.5 17C813.583 17 890.667 17.0001 967.75 17.0001C1044.83 17.0001 1121.92 17.0001 1160.46 17.0001L1199 17.0001L1199 128.939Z" fill="#5C88C4"/>
<path d="M0 214L22.2871 182.82C44.4907 151.305 89.3153 89.4453 133.556 89.1945C178.046 89.4453 222.871 151.305 267.111 156.07C311.602 160.5 356.426 107 400.667 75.8195C445.157 44.3047 489.982 35.9453 534.222 26.75C578.713 17.5547 623.538 9.19531 667.778 31.1805C712.269 53.5 757.093 107 801.333 138.18C845.824 169.695 890.649 178.055 934.889 178.305C979.38 178.055 1024.2 169.695 1068.44 169.445C1112.94 169.695 1157.76 178.055 1179.46 182.82L1202 187.25V0H1179.71C1157.51 0 1112.68 0 1068.44 0C1023.95 0 979.129 0 934.889 0C890.398 0 845.574 0 801.333 0C756.843 0 712.018 0 667.778 0C623.287 0 578.463 0 534.222 0C489.732 0 444.907 0 400.667 0C356.176 0 311.351 0 267.111 0C222.62 0 177.796 0 133.556 0C89.0649 0 44.2403 0 22.5375 0H0V214Z" fill="#1A2130"/>
</svg>
