<svg width="210" height="40" viewBox="0 0 210 40" fill="none" xmlns="http://www.w3.org/2000/svg">
<path d="M72.26 13.04C73.7267 13.04 75.0133 13.3267 76.12 13.9C77.24 14.4733 78.1 15.2933 78.7 16.36C79.3133 17.4133 79.62 18.64 79.62 20.04C79.62 21.44 79.3133 22.6667 78.7 23.72C78.1 24.76 77.24 25.5667 76.12 26.14C75.0133 26.7133 73.7267 27 72.26 27H67.38V13.04H72.26ZM72.16 24.62C73.6267 24.62 74.76 24.22 75.56 23.42C76.36 22.62 76.76 21.4933 76.76 20.04C76.76 18.5867 76.36 17.4533 75.56 16.64C74.76 15.8133 73.6267 15.4 72.16 15.4H70.18V24.62H72.16ZM86.6359 27.18C85.5693 27.18 84.6093 26.9467 83.7559 26.48C82.9026 26 82.2293 25.3267 81.7359 24.46C81.2559 23.5933 81.0159 22.5933 81.0159 21.46C81.0159 20.3267 81.2626 19.3267 81.7559 18.46C82.2626 17.5933 82.9493 16.9267 83.8159 16.46C84.6826 15.98 85.6493 15.74 86.7159 15.74C87.7826 15.74 88.7493 15.98 89.6159 16.46C90.4826 16.9267 91.1626 17.5933 91.6559 18.46C92.1626 19.3267 92.4159 20.3267 92.4159 21.46C92.4159 22.5933 92.1559 23.5933 91.6359 24.46C91.1293 25.3267 90.4359 26 89.5559 26.48C88.6893 26.9467 87.7159 27.18 86.6359 27.18ZM86.6359 24.74C87.1426 24.74 87.6159 24.62 88.0559 24.38C88.5093 24.1267 88.8693 23.7533 89.1359 23.26C89.4026 22.7667 89.5359 22.1667 89.5359 21.46C89.5359 20.4067 89.2559 19.6 88.6959 19.04C88.1493 18.4667 87.4759 18.18 86.6759 18.18C85.8759 18.18 85.2026 18.4667 84.6559 19.04C84.1226 19.6 83.8559 20.4067 83.8559 21.46C83.8559 22.5133 84.1159 23.3267 84.6359 23.9C85.1693 24.46 85.8359 24.74 86.6359 24.74Z" fill="#FDFFE2"/>
<path d="M99.2898 27.14C98.3165 27.14 97.4365 26.9733 96.6498 26.64C95.8765 26.3067 95.2632 25.8267 94.8098 25.2C94.3565 24.5733 94.1232 23.8333 94.1098 22.98H97.1098C97.1498 23.5533 97.3498 24.0067 97.7098 24.34C98.0832 24.6733 98.5898 24.84 99.2298 24.84C99.8832 24.84 100.397 24.6867 100.77 24.38C101.143 24.06 101.33 23.6467 101.33 23.14C101.33 22.7267 101.203 22.3867 100.95 22.12C100.697 21.8533 100.377 21.6467 99.9898 21.5C99.6165 21.34 99.0965 21.1667 98.4298 20.98C97.5232 20.7133 96.7832 20.4533 96.2098 20.2C95.6498 19.9333 95.1632 19.54 94.7498 19.02C94.3498 18.4867 94.1498 17.78 94.1498 16.9C94.1498 16.0733 94.3565 15.3533 94.7698 14.74C95.1832 14.1267 95.7632 13.66 96.5098 13.34C97.2565 13.0067 98.1098 12.84 99.0698 12.84C100.51 12.84 101.677 13.1933 102.57 13.9C103.477 14.5933 103.977 15.5667 104.07 16.82H100.99C100.963 16.34 100.757 15.9467 100.37 15.64C99.9965 15.32 99.4965 15.16 98.8698 15.16C98.3232 15.16 97.8832 15.3 97.5498 15.58C97.2298 15.86 97.0698 16.2667 97.0698 16.8C97.0698 17.1733 97.1898 17.4867 97.4298 17.74C97.6832 17.98 97.9898 18.18 98.3498 18.34C98.7232 18.4867 99.2432 18.66 99.9098 18.86C100.817 19.1267 101.557 19.3933 102.13 19.66C102.703 19.9267 103.197 20.3267 103.61 20.86C104.023 21.3933 104.23 22.0933 104.23 22.96C104.23 23.7067 104.037 24.4 103.65 25.04C103.263 25.68 102.697 26.1933 101.95 26.58C101.203 26.9533 100.317 27.14 99.2898 27.14ZM111.577 27.18C110.511 27.18 109.551 26.9467 108.697 26.48C107.844 26 107.171 25.3267 106.677 24.46C106.197 23.5933 105.957 22.5933 105.957 21.46C105.957 20.3267 106.204 19.3267 106.697 18.46C107.204 17.5933 107.891 16.9267 108.757 16.46C109.624 15.98 110.591 15.74 111.657 15.74C112.724 15.74 113.691 15.98 114.557 16.46C115.424 16.9267 116.104 17.5933 116.597 18.46C117.104 19.3267 117.357 20.3267 117.357 21.46C117.357 22.5933 117.097 23.5933 116.577 24.46C116.071 25.3267 115.377 26 114.497 26.48C113.631 26.9467 112.657 27.18 111.577 27.18ZM111.577 24.74C112.084 24.74 112.557 24.62 112.997 24.38C113.451 24.1267 113.811 23.7533 114.077 23.26C114.344 22.7667 114.477 22.1667 114.477 21.46C114.477 20.4067 114.197 19.6 113.637 19.04C113.091 18.4667 112.417 18.18 111.617 18.18C110.817 18.18 110.144 18.4667 109.597 19.04C109.064 19.6 108.797 20.4067 108.797 21.46C108.797 22.5133 109.057 23.3267 109.577 23.9C110.111 24.46 110.777 24.74 111.577 24.74ZM133.171 15.76C134.531 15.76 135.625 16.18 136.451 17.02C137.291 17.8467 137.711 19.0067 137.711 20.5V27H134.911V20.88C134.911 20.0133 134.691 19.3533 134.251 18.9C133.811 18.4333 133.211 18.2 132.451 18.2C131.691 18.2 131.085 18.4333 130.631 18.9C130.191 19.3533 129.971 20.0133 129.971 20.88V27H127.171V20.88C127.171 20.0133 126.951 19.3533 126.511 18.9C126.071 18.4333 125.471 18.2 124.711 18.2C123.938 18.2 123.325 18.4333 122.871 18.9C122.431 19.3533 122.211 20.0133 122.211 20.88V27H119.411V15.92H122.211V17.26C122.571 16.7933 123.031 16.4267 123.591 16.16C124.165 15.8933 124.791 15.76 125.471 15.76C126.338 15.76 127.111 15.9467 127.791 16.32C128.471 16.68 128.998 17.2 129.371 17.88C129.731 17.24 130.251 16.7267 130.931 16.34C131.625 15.9533 132.371 15.76 133.171 15.76ZM150.668 21.22C150.668 21.62 150.642 21.98 150.588 22.3H142.488C142.555 23.1 142.835 23.7267 143.328 24.18C143.822 24.6333 144.428 24.86 145.148 24.86C146.188 24.86 146.928 24.4133 147.368 23.52H150.388C150.068 24.5867 149.455 25.4667 148.548 26.16C147.642 26.84 146.528 27.18 145.208 27.18C144.142 27.18 143.182 26.9467 142.328 26.48C141.488 26 140.828 25.3267 140.348 24.46C139.882 23.5933 139.648 22.5933 139.648 21.46C139.648 20.3133 139.882 19.3067 140.348 18.44C140.815 17.5733 141.468 16.9067 142.308 16.44C143.148 15.9733 144.115 15.74 145.208 15.74C146.262 15.74 147.202 15.9667 148.028 16.42C148.868 16.8733 149.515 17.52 149.968 18.36C150.435 19.1867 150.668 20.14 150.668 21.22ZM147.768 20.42C147.755 19.7 147.495 19.1267 146.988 18.7C146.482 18.26 145.862 18.04 145.128 18.04C144.435 18.04 143.848 18.2533 143.368 18.68C142.902 19.0933 142.615 19.6733 142.508 20.42H147.768Z" fill="white"/>
<path d="M162.212 13.04V15.3H158.492V27H155.692V15.3H151.972V13.04H162.212ZM170.495 15.76C171.335 15.76 172.082 15.9467 172.735 16.32C173.388 16.68 173.895 17.22 174.255 17.94C174.628 18.6467 174.815 19.5 174.815 20.5V27H172.015V20.88C172.015 20 171.795 19.3267 171.355 18.86C170.915 18.38 170.315 18.14 169.555 18.14C168.782 18.14 168.168 18.38 167.715 18.86C167.275 19.3267 167.055 20 167.055 20.88V27H164.255V12.2H167.055V17.3C167.415 16.82 167.895 16.4467 168.495 16.18C169.095 15.9 169.762 15.76 170.495 15.76ZM178.898 14.6C178.404 14.6 177.991 14.4467 177.658 14.14C177.338 13.82 177.178 13.4267 177.178 12.96C177.178 12.4933 177.338 12.1067 177.658 11.8C177.991 11.48 178.404 11.32 178.898 11.32C179.391 11.32 179.798 11.48 180.118 11.8C180.451 12.1067 180.618 12.4933 180.618 12.96C180.618 13.4267 180.451 13.82 180.118 14.14C179.798 14.4467 179.391 14.6 178.898 14.6ZM180.278 15.92V27H177.478V15.92H180.278ZM189.184 15.76C190.504 15.76 191.571 16.18 192.384 17.02C193.197 17.8467 193.604 19.0067 193.604 20.5V27H190.804V20.88C190.804 20 190.584 19.3267 190.144 18.86C189.704 18.38 189.104 18.14 188.344 18.14C187.571 18.14 186.957 18.38 186.504 18.86C186.064 19.3267 185.844 20 185.844 20.88V27H183.044V15.92H185.844V17.3C186.217 16.82 186.691 16.4467 187.264 16.18C187.851 15.9 188.491 15.76 189.184 15.76ZM202.827 27L199.067 22.28V27H196.267V12.2H199.067V20.62L202.787 15.92H206.427L201.547 21.48L206.467 27H202.827Z" fill="#5C88C4"/>
<rect x="20" y="2" width="36" height="36" rx="18" fill="#5C88C4" stroke="#5C88C4" stroke-width="4"/>
<rect x="2" y="2" width="36" height="36" rx="18" stroke="#FDFFE2" stroke-width="4"/>
</svg>
