<svg width="1202" height="233" viewBox="0 0 1202 233" fill="none" xmlns="http://www.w3.org/2000/svg">
<path d="M0 72.9192H22.2871C44.4907 72.9192 89.3153 72.9192 133.556 77.3381C178.046 82.0905 222.871 90.428 267.111 108.52C311.602 126.279 356.426 152.96 400.667 152.96C445.157 152.96 489.982 126.279 534.222 90.6782C578.713 55.4104 623.537 10.3876 667.778 1.79996C712.268 -7.12121 757.093 19.5589 801.333 28.4801C845.824 37.0678 890.649 28.7302 934.889 23.9778C979.38 19.5589 1024.2 19.5589 1068.44 28.4801C1112.94 37.0678 1157.76 55.4104 1179.46 63.998L1202 72.9192V233H1179.71C1157.51 233 1112.68 233 1068.44 233C1023.95 233 979.129 233 934.889 233C890.398 233 845.574 233 801.333 233C756.843 233 712.018 233 667.778 233C623.287 233 578.463 233 534.222 233C489.732 233 444.907 233 400.667 233C356.176 233 311.351 233 267.111 233C222.62 233 177.796 233 133.556 233C89.0649 233 44.2403 233 22.5375 233H0V72.9192Z" fill="#1A2130"/>
</svg>
